<svg width="410" height="404" viewBox="0 0 410 404" fill="none" xmlns="http://www.w3.org/2000/svg">
<path d="m399.641 59.5246c4.386 7.0556 6.953 15.4647 6.953 24.4933v22.4756c0 19.9666-12.3 37.3333-30.733 44.1333l-184.4 67.8667c-3.666 1.3666-7.733 2.0666-11.8 2.0666s-8.133-.7-11.8-2.0666l-184.4-67.8667c-18.433-6.8-30.733-24.1667-30.733-44.1333v-22.4756c0-9.0286 2.567-17.4377 6.953-24.4933 4.386-7.0556 10.724-12.7889 18.247-16.4933l184.4-90.93333c9.067-4.46667 19.6-4.46667 28.667 0l184.4 90.93333c7.523 3.7044 13.861 9.4377 18.247 16.4933z" fill="#646cff"/>
<path d="m292.965 1.5744-5.95 8.8511-10.567 15.6089-6.35 9.3822-15.8 23.3511-6.35 9.3822-10.567 15.6089-5.95 8.8511-10.566 15.6088-6.35 9.3822-15.8 23.3511-6.35 9.3822-10.567 15.6089-5.95 8.8511-10.566 15.6088-6.35 9.3822-15.8 23.3511-6.35 9.3822-10.567 15.6089-5.95 8.8511-10.566 15.6088-6.35 9.3822-15.8 23.3511-6.35 9.3822-10.567 15.6089-5.95 8.8511-10.566 15.6088-6.35 9.3822-15.8 23.3511-6.35 9.3822-10.567 15.6089-5.95 8.8511" stroke="#9ca3af" stroke-width="5.2" stroke-linecap="round"/>
</svg>
